<svg id="Layer_1" data-name="Layer 1" xmlns="http://www.w3.org/2000/svg" viewBox="0 0 226.71 41.42"><defs><style>.cls-1{fill:none;stroke:#ba9bc9;stroke-miterlimit:10;stroke-width:2px;}.cls-2{fill:#ba9bc9;}</style></defs><circle class="cls-1" cx="20.7" cy="20.71" r="19.7"/><circle class="cls-1" cx="22.23" cy="14.32" r="13.32"/><line class="cls-1" x1="1.14" y1="22.98" x2="40.3" y2="22.74"/><path class="cls-2" d="M47.05,34.83a.5.5,0,0,1-.5-.5v-.49a.5.5,0,0,1,.5-.5c1.09,0,1.43-.77,1.48-3.27a.49.49,0,0,1,.5-.49h11.7c3.13,0,5-.08,5-1.48a.5.5,0,0,1,.5-.5h.54a.52.52,0,0,1,.37.16.51.51,0,0,1,.12.39l-.57,6.23a.49.49,0,0,1-.49.45Zm2-8.78a.5.5,0,0,1-.5-.5V13.24c0-3.34-.13-4.51-1.48-4.51a.5.5,0,0,1-.5-.5v-.5a.5.5,0,0,1,.5-.5h8.51a.5.5,0,0,1,.5.5v.5a.5.5,0,0,1-.5.5c-1.35,0-1.47,1.17-1.47,4.51V25.55a.5.5,0,0,1-.5.5Z"/><path class="cls-2" d="M49,25.55V13.24c0-3,0-5-2-5v-.5h8.51v.5c-2,0-2,2-2,5V25.55Zm17.21,8.78H47.05v-.49c1.67,0,1.94-1.49,2-3.76h11.7c3,0,5.54,0,5.54-2h.54Z"/><path class="cls-2" d="M80.6,35.44c-6.85,0-14.21-4.51-14.21-14.41S73.75,6.63,80.6,6.63,94.78,11.13,94.78,21,87.43,35.44,80.6,35.44Zm0-23.22c-4.2,0-8.73,2.76-8.73,8.81s4.53,8.81,8.73,8.81,8.73-2.76,8.73-8.81S84.81,12.22,80.6,12.22Zm-.15,13.49a.51.51,0,0,1-.5-.44c-.22-1.78-1.49-3.62-3.22-3.62a.5.5,0,0,1-.5-.5v-.54a.5.5,0,0,1,.5-.5c1.73,0,3-1.84,3.22-3.62a.51.51,0,0,1,.5-.44h.49a.51.51,0,0,1,.5.43c.25,1.76,1.48,3.63,3.26,3.63a.5.5,0,0,1,.5.5v.54a.5.5,0,0,1-.5.5c-1.78,0-3,1.87-3.26,3.63a.51.51,0,0,1-.5.43Z"/><path class="cls-2" d="M80.6,34.94c-6.88,0-13.72-4.64-13.72-13.91S73.72,7.13,80.6,7.13,94.28,11.76,94.28,21,87.44,34.94,80.6,34.94Zm0-23.22c-4.63,0-9.23,3.08-9.23,9.31s4.6,9.31,9.23,9.31A8.9,8.9,0,0,0,89.83,21,8.9,8.9,0,0,0,80.6,11.72Zm-.15,13.49c-.27-2.13-1.79-4.06-3.72-4.06v-.54c1.93,0,3.45-1.93,3.72-4.06h.49c.31,2.13,1.79,4.06,3.76,4.06v.54c-2,0-3.45,1.93-3.76,4.06Z"/><path class="cls-2" d="M113.17,34.83a.5.5,0,0,1-.5-.5v-.49a.5.5,0,0,1,.5-.5.7.7,0,0,0,.6-.2c.35-.55-.38-2.34-.78-3.25H101.22c-.4.91-1.14,2.71-.78,3.26.08.12.27.19.57.19a.5.5,0,0,1,.5.5v.49a.5.5,0,0,1-.5.5H92.54a.5.5,0,0,1-.5-.5v-.49a.5.5,0,0,1,.5-.5c.82,0,1.3-.39,1.91-1.52L100,19.72a.5.5,0,0,1,.46-.29h4.75a.5.5,0,0,1,.42.23.51.51,0,0,1,0,.48l-2.07,4.5h7l-6.51-14.15a2.59,2.59,0,0,0-2.62-1.76.5.5,0,0,1-.5-.5v-.5a.5.5,0,0,1,.5-.5H108a.52.52,0,0,1,.46.29l11.13,23.94c.71,1.42,1.23,1.88,2.13,1.88a.5.5,0,0,1,.5.5v.49a.5.5,0,0,1-.5.5Z"/><path class="cls-2" d="M100.48,19.93h4.75l-2.4,5.21h8.51L104.5,10.28a3.07,3.07,0,0,0-3.07-2v-.5H108l11.13,23.94c.69,1.37,1.33,2.17,2.59,2.17v.49h-8.51v-.49c1.86,0,1.25-2,.15-4.45H100.89c-1.1,2.47-1.7,4.45.12,4.45v.49H92.54v-.49c1.14,0,1.74-.65,2.35-1.79Z"/><path class="cls-2" d="M136.65,34.83a.5.5,0,0,1-.5-.5v-.49a.5.5,0,0,1,.5-.5.67.67,0,0,0,.34-.06s0-.23-.47-1.09l-5.28-7.81-2.22.28v4.16c0,3.35.12,4.52,1.48,4.52a.5.5,0,0,1,.5.5v.49a.5.5,0,0,1-.5.5H122a.5.5,0,0,1-.5-.5v-.49a.5.5,0,0,1,.5-.5c1.35,0,1.47-1.17,1.47-4.52V20.5a.51.51,0,0,1,.44-.5l8.4-1.06c2.78-.37,3.94-2.17,3.84-3.68-.08-1.26-1.12-2.73-3.78-2.73H124a.51.51,0,0,1-.5-.49c0-2.51-.4-3.31-1.47-3.31a.5.5,0,0,1-.5-.5v-.5a.5.5,0,0,1,.5-.5h10.37c5.84,0,8.63,3.24,9.3,6.27.81,3.66-1.17,7.45-4.84,9.4l3.82,5.56.05.1a1,1,0,0,1,.07.12L143.07,32c.76.92,1.38,1.31,2.09,1.31a.5.5,0,0,1,.5.5v.49a.5.5,0,0,1-.5.5Z"/><path class="cls-2" d="M124,20.5l8.4-1.06c5.7-.76,5.73-7.41,0-7.41H124c0-2.28-.3-3.8-2-3.8v-.5h10.37c10.6,0,11.78,11.25,3.72,15l4.14,6.05c0,.07.08.11.08.15l2.35,3.42a3.35,3.35,0,0,0,2.51,1.52v.49h-8.51v-.49c1.14,0,.95-.8.31-1.9l-5.48-8.1-3,.38v4.6c0,3,0,5,2,5v.49H122v-.49c2,0,2-2,2-5Z"/><path class="cls-2" d="M149,34.94a3,3,0,0,1-3-3,3,3,0,1,1,3,3Z"/><path class="cls-2" d="M149,29.54a2.45,2.45,0,0,1,0,4.9,2.45,2.45,0,1,1,0-4.9Z"/><path class="cls-2" d="M153.41,34.83a.5.5,0,0,1-.5-.5v-.49a.5.5,0,0,1,.5-.5c1.36,0,1.48-1.17,1.48-4.52V20.35a.5.5,0,0,1,.5-.5h9c3.35,0,4.52-.12,4.52-1.48a.5.5,0,0,1,.5-.5h.49a.5.5,0,0,1,.5.5v8.21a.5.5,0,0,1-.5.5h-.49a.5.5,0,0,1-.5-.5c0-1.35-1.17-1.48-4.52-1.48h-3.9v3.72c0,3.35.12,4.52,1.47,4.52a.5.5,0,0,1,.5.5v.49a.5.5,0,0,1-.5.5ZM172.1,14.47a.51.51,0,0,1-.5-.5c0-1.36-1.17-1.48-4.51-1.48h-11.7a.49.49,0,0,1-.5-.49c0-2.51-.39-3.27-1.48-3.27a.5.5,0,0,1-.5-.5v-.5a.51.51,0,0,1,.5-.5H172.6a.51.51,0,0,1,.5.5V14a.51.51,0,0,1-.5.5Z"/><path class="cls-2" d="M172.6,7.73V14h-.5c0-2-2-2-5-2h-11.7c0-2.28-.31-3.76-2-3.76v-.5ZM155.39,20.35h9c3,0,5,0,5-2h.49v8.21h-.49c0-2-2-2-5-2H160v4.22c0,3,0,5,2,5v.49h-8.51v-.49c2,0,2-2,2-5Z"/><path class="cls-2" d="M187,35.74c-5.59,0-11.25-4-11.25-11.52v-11c0-3.34-.12-4.51-1.48-4.51a.5.5,0,0,1-.5-.5v-.5a.51.51,0,0,1,.5-.5h8.51a.5.5,0,0,1,.5.5v.5a.5.5,0,0,1-.5.5c-1.11,0-1.43.74-1.47,3.46v12a5.69,5.69,0,1,0,11.38,0v-11c0-3.34-.12-4.51-1.47-4.51a.5.5,0,0,1-.5-.5v-.5a.5.5,0,0,1,.5-.5h8.51a.5.5,0,0,1,.5.5v.5l-.08.42-.42.08a6.43,6.43,0,0,0-.76.2c-.65.46-.72,1.75-.72,4.31v11C198.25,32.14,192.42,35.74,187,35.74Z"/><path class="cls-2" d="M197.75,24.22c0,7.34-5.35,11-10.75,11s-10.75-3.68-10.75-11v-11c0-3,0-5-2-5v-.5h8.51v.5c-1.74,0-1.94,1.56-2,3.95v12a6.19,6.19,0,1,0,12.38,0v-11c0-3,0-5-2-5v-.5h8.51v.5c-2,0-2,2-2,5Z"/><path class="cls-2" d="M221.05,34.83a.53.53,0,0,1-.39-.18L202.16,12a.47.47,0,0,1-.12-.32c0-1.7-.19-2.46-.62-2.78a2,2,0,0,0-.85-.21c-.4-.06-.67-.06-.71-.18s.1-.23.21-.32a.89.89,0,0,0,0-.5.9.9,0,0,0-.51-.5h5.68a.49.49,0,0,1,.39.19l13.55,16.79V12.48c0-2.91-.33-3.75-1.48-3.75a.5.5,0,0,1-.5-.5v-.5a.51.51,0,0,1,.5-.5h8.51a.5.5,0,0,1,.5.5v.5a.5.5,0,0,1-.5.5c-1.35,0-1.47,1.17-1.47,4.51V28.82c0,3.35.12,4.52,1.47,4.52a.5.5,0,0,1,.5.5v.49a.5.5,0,0,1-.5.5Zm-20.48,0a.5.5,0,0,1-.5-.5v-.49a.5.5,0,0,1,.5-.5c1.35,0,1.47-1.17,1.47-4.52V19.93a.5.5,0,0,1,.5-.5h4.56a.5.5,0,0,1,.5.5v8.89c0,3.35.12,4.52,1.48,4.52a.5.5,0,0,1,.5.5v.49a.5.5,0,0,1-.5.5Z"/><path class="cls-2" d="M205.24,7.73l14.44,17.9V12.48c0-2.58-.19-4.25-2-4.25v-.5h8.51v.5c-2,0-2,2-2,5V28.82c0,3,0,5,2,5v.49h-5.16L202.54,11.72c0-2.28-.3-3.49-2-3.49v-.5Zm-2.7,12.2h4.56v8.89c0,3,0,5,2,5v.49h-8.51v-.49c2,0,2-2,2-5Z"/></svg>